<?xml version="1.0" encoding="UTF-8"?>
<svg id="Layer_2" data-name="Layer 2" xmlns="http://www.w3.org/2000/svg" viewBox="0 0 610.29 662.89">
  <defs>
    <style>
      .cls-1 {
        fill: #fff;
      }
    </style>
  </defs>
  <path d="M459.5,143.35c3,6.4,12.4,16.2,19.8,16.8s8.4-4.9,7.3,2.6-24.5,17.4-31,12.5c-1.5,1.8,10.3,8.1,12,8.5,4.8,1.2,9.2.7,13.5-1.5,2.6,1.8,1.4,3.8,0,6-3.6,5.5-11.6,5.3-17.4,5.1,3.6,8-4,8.3-10,9.5,27,16,57.2,21.7,79.5,45.5,23.2,24.8,48.6,95,61.2,128.8s24.5,60.1,7.3,81.8c-19.2,24.1-100.2,40.9-129.4,36.4-9-1.4-15.9-5.5-24.1-8.9-31.7,6.6-62.8,15.8-95,20.1-67.9-8.7-138.5-13.6-205.9-25.2-21.2-3.6-23.6-12-31.8-30.2-16.2-36-29.6-74.7-44.8-111.2-.7-21.3,16.1-16.8,30.5-17.5,2.4-.1,4.6-1,6.9-1.1,16.4-.5,32.9.6,49.3-.2,12.6-19.4,22.8-40.6,35.4-60.1,8.7-13.4,16-23.7,29.9-32.1,11.6-7,25.8-10.9,35.9-20.1-9.4-.6-12.3-3.6-8-12.5-8.2,3.5-21.1,3.4-21-8,11.2,4.1,16.6-9.5,19-18-5.3,5.1-10.5,7.5-18,5.5-4.1-1.1-11.5-9.2-6.4-10.5s9.6,4.9,10.2-.5-4-10.8-.7-15.5c-6.7.8-10.8-1.9-10-9,3.1.3,4.5.2,7.1-1.4,6.9-4.5,21.2-24.2,22.7-32.3,2.4-12.6-7.5-14.5-5.5-23.5s6.8-4,7.6-6.4.6-10.7,1.4-14.6C265.7,17.85,292.4.35,336.2,1.35c43.8,1,9.7-.2,18-1,44.7-3.9,71.2,24.8,85.2,63.7,14,38.9,16.1,60.6,41,65.1,2.6.5,9.5-2.2,6.5,4.9s-19.3,10.4-27.3,9.3h-.1,0ZM337.5,23.35h19.5c4.6,0,16.4,7.6,20,11,27.9,26.8,15.6,79,41.5,108-4.3-10.1-8.9-20.1-11.7-30.8-2.8-10.4-3.5-21.1-5.6-31.4s-4.9-18.5-6.7-27.8c19.2,22.3,16.3,56.2,37.5,77,.8.2.6-1,.5-1.5-1.1-3.7-5.1-9-6.7-13.3s-4.6-13.1-4.7-19.3c5.2,7,9.9,16.9,16,23s19.6,13.1,23.7,14.3,3.2,1.4,3.8.2c-21.1-10.8-35.6-25.5-46.2-46.8s-7.3-20.1-11.6-29.4c-1.6-3.5-5.2-7.5-6.2-9.8s-.3-1.6.5-1.5l4,4,.5-1.5c-6.3-9.7-10.6-19.6-20-27,1.3-1.2,4.1,1,5.3,1.7,22.3,13.2,34.9,42.9,44.7,65.8,1.9.2.8-2,.5-3-7.6-33.6-25.1-69.8-62.4-76.6-13.1-2.4-29.9-1.7-40.2,7.7,15.9-6,34-5.3,47,6.5l-3,1c5.2,3.9,10.6,8.3,13,14.5-1.2,1.1-9.9-8.5-11.7-9.8-11.2-8.2-25-10.1-38.3-6.7s-3.2,0-3,1.5h0ZM298,24.35c4.5-.5,9.9.4,14.5,0l-10-4.5c-.5-1.4,3-3.5,3.5-3.5h15c1,0,4.1,3,3.5-1l-11-1c1.3-5.8,10.8-4.1,15.5-3l1-2c-2.3-3.2-22.5,1.7-26.8,3.2s-8.9,4.2-12.2,6.8-10.8,10.9-11.5,12.5.3,2,1.5,1.5,4.8-4.8,7.8-6.2,7.2-2.6,9.2-2.8ZM383.5,67.35c-4.2-18.7-15.6-35.9-36.5-37-8.9-.5-17.6,3.7-25,3.8s-12-3.2-18-2.8c-21.7,1.2-29.9,26.8-29.5,45,10.8-2.3,22.1,1.1,32.5,4l1-5c2.7,3,0,5.4,5,6s5.8-.3,8.6,0v-6l2,5c20.4-6.7,41.1-6.1,62-2,2.2-2.2-15.1-14.8-19-13l7.5-1.5,9.5,3.5h-.1ZM279.5,81.35c-6.7.3-17.7,0-23.7,2.7s-1.5-.2-1.3,1.7l5,9.5c-1.2-12.8,8.6-10.9,17.3-12.2s3-.4,2.7-1.7ZM342.5,82.35c-10,1-20.7,2.1-16,15l3.5-10,12.5-5ZM380.5,84.35l-13-2c4,3.3,5.7,5,7.5,10l5.5-8ZM376.5,133.35c-1.3-1.2,15.7-16.6,16.6-19.9s-2.1-16.1-2.8-17.4c-1.3-2.6-7.9-2.4-9.3-.7s-3,11-4.6,14.4c-4.3,9.4-10.4,12-20.3,12.7s-21.9-.9-29.8-12.3-4.3-16.9-12.1-15.6c-4.7,1.4-8.8,26.5-12.7,31.4,1.2,7.4,13.5,16.4,20,8.9l-4-.5c1.8-8.4,11.8-.5,14.6-2.9,2.8-2.4.3-6,.9-9.1,4.2,2.7,3.8,8.2.6,11.5s-5.1,1.3-6,3.4c5.4.7,9.7,4.5,15,5.6s3.9-.2,5.8,0c10.4,1.7,11.3,12.7,11.2,21.3l8.4-11.7c5.6-3.1,11.2-7.9,17.7-9.9l5.9-18.4-15,9-.1.2h0ZM241.5,162.35c1.4-6.4,2.8-14,5.5-20,3.9-8.6,12.9-15,12.5-26l-4,8.5c-8.8,10.1-18.2,19.7-15.5,34.5s0,3.2,1.5,3ZM303.5,136.35c-12.3-3.3-4.1-11-3-19-8.6,6-18.9,6.8-29,5-.9,9.8,3,18.7,5,28l3-1,5.5,13c0-6.1-2-10.5,2.1-15.9s3.9-1.8,6.1-2.9,11.1-6.1,10.3-7.2h0ZM465.5,162.35c-16.1-5.5-26.9-19.8-39-31-.3,1.7.8,2.6,1.6,3.9,7,11.3,20.1,26.3,34,28s3.6.9,3.4-.9ZM454.5,188.35c-3.9-3.3-8.8-5.5-12.9-8.6-3.8-2.9-7.6-6.6-11.1-9.9l-20-26.5c5.6,21.5,21.4,40.7,44,45ZM331.5,152.35c-6.8-1.2-13-1.9-17-8-.7,6-7.2,7.4-12,8.5l14.5,1.6,14.5-2.1ZM261.5,169.85c1-7.1-.7-16.2,0-23.5-3.3,2.1-1.6,7.9-2.1,11.4-1.5,9.7-4.4,19.4-9.9,27.6,5.6-2,11.2-9.8,12-15.5ZM308,165.35c5.8.7,13.9,0,20,0s4-3.1,5.5-1.5c-1.8,3.3-4.9,6.3-9,6.5,6.1,18,28.3,4.4,27-10.5s-6.6-4.2-11.6-3.6-18.1,2.2-24.9,2.2-14.6-2.5-21.9-3c-5.8,2,2.8,26.2,12.3,22.3,1.1-.4,6.1-4.9,6-6-2.4-2.2-6.6-3.4-6-7.5,1.1-.4,2.1.9,2.5,1l.1.1h0ZM397.5,182.85c-.6-5.5.5-11.9,0-17.5-1.6.5-2.9,5.3-3,6.6-.2,2.4,1.1,4.5,1,6.8-.5,9.1-3.9,22.4-9.5,29.5l6-33c-3.8,3.6-6.6,8-10.5,11.5-8.7,7.9-38.3,26.5-49.5,26.5h-14.5l2.5,13c-5.7-4.8-4.4-14.4-12.5-15l3,20c-5.3-4.8-7.5-12.3-9-19-13.5,11.1-8.4,35.7,3.5,46,30,25.8,80.5-12.8,93.6-41.3,1.2-2.5,5.5-13.2,5.4-15.2-.1-2.8-6-13.5-6.6-19l.1.1ZM257.5,199.35c1.1,1,6.8-5,7.5-6,5.1-6.6,6.1-13.8,5.5-22l-4.8,16.7-8.2,11.3ZM416.4,187.45l-7.9-5.1c1.3,4.7,4.6,9.6,4.9,14.6.8,13-14.4,38.9-19.7,52.1-17.7,43.8-29.5,91.1-33.2,138.3,12.3-7.8,22.9-1.5,35,3,5.6-39,14.9-77.6,27.7-114.8,5.9-16.9,21.2-47.5,19-64.5s-1.9-8.2-3-9.5c-3.4-4-17.1-8.3-21.2-13.3l-1.5.5c1.4,2.6,4.6,7.3,4.7,10.2s-1.3,6.7-2.7,7.3c1.3-6.1-1.6-10.5-2.8-15.8s.8-2.8.7-3.1v.1h0ZM284.5,202.35c-2,.3-6.9,3.4-8.9,4.6-37.5,23-41.8,76.7-45.1,116.4l30,1c1.1-25.9,4.8-53.2,12.5-78s10.7-29.9,21.5-40.5l-6-7.5c-.2-.2-3.4,3.3-4,4,.6-.1,2-.3,2,.5l-10,12.5c1-4.7,4.9-9.3,8-13ZM544.5,285.35c-8.4-20.9-22.5-37.2-42-48.5l-54-24.5c0,31.6-20.3,59.3-26,90,2.2-.9,4.6-1.9,7-1.6,3.9.5,5.5,3.8,8.9,4.6-.5-9.4,4.3-17.9,6-27,1.8-.2,1,3.3.9,4.4-.7,6.6-2.8,14-3.9,20.6,7.1-4.9,13.8-2.5,19.6,2.9,2.2.4,7.3-7.6,14.3-4.4s5.3,6.7,7,5.5c2.7-9.9,6-20.6,13.5-28l-7.5,27c2.3-.2,3.6-1.8,5.9-2.6s4.4,0,6.1-.9,3.3-5.4,5-7c5.8-5.8,13.3-5.2,20.6-2.8,5.6-7.4,8.9-9.9,18.5-7.7h.1ZM246.5,227.35c-9.5,4.1-19.4,8.3-27.5,15-14.5,12.1-21.6,30.9-31.5,46.5,7.5-1.4,9.3,9,10.9,10.1s13.5-2.6,14.1,7.4c4.4-1.6,7-4.3,12-2,2.2-18.8,5.9-37.4,12.3-55.3l9.7-21.7ZM361.5,270.35c-24.7,12.3-55.8,12.3-73-12,10.3,30.1,51.4,29.9,73,12ZM548.2,293.65c-1.4-1.1-9.1-2.7-11-2.1-3,1.3-3,4.9-5.2,6.8-5.5,5-10.7-2-16.8-.8s-8.8,11.6-12.8,13.4-6.1-2.4-11.9,2-5.8,18.6-6.1,25.4l6.2-11.3c1.5-2.2,6.1-7.8,8.5-8.5,3.5-1,8.3.8,11.6-1.2s2.8-6.3,5.4-7.9c6.4-3.8,10.2,3.3,14.6,2.7s6.7-8,12.2-7.9,7.1,5.8,10,5.1c1-.8,1.37-1.8,1.1-3-.4-1.8-5.3-12.3-5.8-12.7h0ZM207.4,322.25c2.5-4.3,1-15.8-4.4-16.8s-7.8.8-9.5-.5l-3.3-8.6-6.4-.7-5.2,9.8c8.6-.7,15,9.6,17.1,16.9h11.7v-.1h0ZM480.4,314.45l-8.6-7c-2.1-.3-5.3,5.4-7.3,6.3-7.4,3.4-8.9-6.2-14.5-6.6s-8.8,7.6-14,7.1-3.8-11.1-13.9-4.9-4,10.5-6.7,15.8c7.8-3.8,8.8-.2,15.3,2.8,4.7-2.3,6.4-6.9,12.2-6.8,5.3,0,4.4,3.4,7.6,5.5,7.4,4.9,10.6-4.5,16.5-4.5s7.2,5,11.5,6.1l1.9-13.8h0ZM188.5,322.35c-.9-9.2-8.2-6.4-12.5-12l-7.5,12h20ZM223.4,311.55c-8.6-4.3-9.3,5.6-9.9,11.8l9.6-.9.3-10.9h0ZM520,405.35c-6.5-.7-15.2,0-22,0s-1.8,1.6-1.5,2c24.4,13.3,47.1,40,48,69,17.6-5.6,47.9-14.4,52.7-34.8,4.2-17.6-7.6-46.5-14-63.5s-8.9-22.8-14.3-33.7l-7,15-2.5-1.5c1.5-5.8,6.2-15.2,6-21s-6.5-14.7-7.1-21.5c-5.8,4-11.7-3.4-15.5-3s-6,5.3-10.1,6-8.1-.3-12-2.7c-2.5,2-3.2,4.7-6.2,6.6-7.2,4.7-12-.7-19.2,8.8-13.7,18.1-13.2,46.4-1.7,65.3,7.6-10.8,20.8-17.5,33.5-20-4.1,3.3-9.2,4.8-13.7,7.8s-7.1,4.9-9.3,8.2c26.3-9.5,62.3-9.1,81,14-7.1-2-13.1-6.6-20.5-9-9.8-3.2-20.7-4.8-31-4s-18.8,3.3-16.5,5c16.2.6,35.8,11.4,44.2,25.3s2.6,3.7,1.3,4.7c-10.6-11-27.5-21.3-43-23h.4ZM473.9,334.95c-1.8-2.3-3.5-4.8-6.7-5.5-9.3,6.4-16.5,8.8-24.3-1.1-2.5-.4-6.6,7.8-15.7,5.7s-3.4-2.8-6.2-2.9-6.7,1.6-7.3,2.3l-11.1,59.6c8.5,1.5,23.8,12.8,31.5,12.9,1,0,6.5-3.3,9.9-3.7s26.1-1,27.4-2.1c-2.7-11.4-7.7-23.2-7.5-35,3,10.8,6.9,22.5,15.5,30-3.5-19.2-5.2-38-3-57.5,0-1.9-2-2-2.6-2.8l.1.1h0ZM302.5,334.35c-72-3.6-144.2-5-216.5-5.1-4.4.3-5.8,5.2-8.4,8,1.4,1.9,38.6.8,44.5,1,43.5,1.3,87.3,3.4,130.9,5.1,13,.5,26.3.2,39.1,1.9l2-.8,8.4-10.1h0ZM358.4,486.15c-15.8-48.4-32-96.8-49.7-144.5l-2.6-2.3-8.1,7.9c19.6,47,37.1,95.3,52.5,144l7.8-5.2.1.1ZM345.5,491.35l-52-141.5-215-8.5c6.6,13.3,13.1,26.7,19.2,40.3,10.2,23,18.8,48.9,30,71s5.1,10.4,9.9,14.1c69,10.2,138.6,16.7,208,24.5l-.1.1ZM467.5,461.35c-4.9-14.6-12.7-29.8-23.5-41-5.7-6-4.3-3.4-10.8-5.2-20.7-6-39.3-19.8-60.2-25.6-3,0-33.9,15.6-34.4,17.5l4.4,12.4c9.1-7,19.9-12.6,31.5-13-4.6,6.9-28.5,12.6-26.8,23.2s4.7,12.8,5.3,12.7c3.5-4.6,8.6-10.6,13.8-13.2,2-1,12.5-4.7,14.3-4.8s2.3,0,3.4,1.5c-6.2,7-17.9,9.4-22.4,17.6-2.4,4.5-5.3,13.5,1.4,15.5,5.7,1.7,6.5-3.8,9.5-6.6,8.1-7.3,15.2-4.2,23.5-9l-1.8,3.5c9.9,11.4,34,18.5,44.4,4.5,1.6-2.2,1.6-4.9,3.4-6,0,2.4.3,4.7-.4,7.1s-3.7,3.3-3.6,5.9l29,3h0ZM535.3,478.15c4.6-16.1-7.9-36.9-18.2-48.8-4.8-5.5-21.2-20.2-28-21-6.2-.8-17.2,2.5-24,3-6.4.5-13.1-.3-19.5,0,19.8,19.2,34.7,45.9,35,74,18.4-.3,37-2.4,54.8-7.2h-.1,0ZM394.5,459.35l-6.6-5-7.4,3,14,2ZM435.5,471.35c-.6-2.1-2.7-2.1-4.5-2.1-16.6,0-36,6.5-52.9,7-5.2-1.3-9.9-.7-15.3-1.7s.4,3.5,1,5,.6,3.2.7,4.8l71-13h0ZM440.5,476.35c-26.6,2.8-52.6,11.1-79.3,14.2l-6.7,5.8,86-20Z"/>
  <path class="cls-1" d="M345.5,491.35c-69.4-7.8-138.9-14.3-208-24.5-4.8-3.7-7.2-8.9-9.9-14.1-11.2-22.1-19.8-48-30-71s-12.6-27-19.2-40.3l215,8.5,52,141.5.1-.1ZM184.5,413.35c-2.1-3,24.6-12.2,16-17.5s-2.5-.5-4,0-18.7,10.9-20,12c-2.4,2-2.8,4.6-1.5,7.5s21.5,14.1,24,14.1,4.2-1.4,3.3-4.4-14.2-9.9-17.8-11.7h0ZM228.5,413.35c-3.7.8-18,10.4-18,13.5s.7,1.9,1.5,2.6c1.2,1.1,2.2,1,3.6.5,2.2-.7,20.8-13.1,21.5-14.6s1-4.6-.5-6.5-21.3-13.1-22.6-13.2-2.2.5-3.2.9c-4,6.4,15.1,12.7,17.9,16.9l-.2-.1h0Z"/>
  <path class="cls-1" d="M520,405.35c15.5,1.6,32.4,12,43,23,1.3-1-.7-3.7-1.3-4.7-8.3-13.9-28-24.7-44.2-25.3-2.3-1.6,15-4.8,16.5-5,10.3-.9,21.2.7,31,4,7.3,2.4,13.3,7,20.5,9-18.7-23.1-54.7-23.5-81-14,2.2-3.3,6-6.1,9.3-8.2s9.6-4.5,13.7-7.8c-12.7,2.5-25.9,9.2-33.5,20-11.5-18.9-12-47.2,1.7-65.3,7.2-9.5,11.9-4.1,19.2-8.8,2.9-1.9,3.6-4.6,6.2-6.6,3.8,2.4,7.4,3.5,12,2.7s7.7-5.7,10.1-6c3.8-.4,9.7,7,15.5,3,.5,6.9,6.8,15.1,7.1,21.5s-4.5,15.2-6,21l2.5,1.5,7-15c5.3,10.9,10,22.4,14.3,33.7,6.4,17,18.2,45.9,14,63.5-4.9,20.4-35.1,29.1-52.7,34.8-.9-29-23.6-55.7-48-69-.3-.4,1.3-2,1.5-2,6.8,0,15.5-.7,22,0h-.4Z"/>
  <path class="cls-1" d="M416.4,187.45c.2.3-.9,2-.7,3.1,1.2,5.3,4.1,9.7,2.8,15.8,1.4-.7,2.8-6.2,2.7-7.3-.1-2.8-3.3-7.5-4.7-10.2l1.5-.5c4.1,5,17.8,9.3,21.2,13.3s2.8,7.6,3,9.5c2.2,17-13.1,47.6-19,64.5-12.9,37.2-22.2,75.8-27.7,114.8-12-4.5-22.7-10.8-35-3,3.7-47.2,15.5-94.5,33.2-138.3,5.3-13.2,20.5-39.1,19.7-52.1-.3-5-3.7-9.9-4.9-14.6l7.9,5.1v-.1h0Z"/>
  <path class="cls-1" d="M544.5,285.35c-9.6-2.2-12.9.3-18.5,7.7-7.3-2.4-14.7-3-20.6,2.8s-4,6.5-5,7c-1.7.9-4.2.3-6.1.9s-3.7,2.4-5.9,2.6l7.5-27c-7.5,7.4-10.8,18.1-13.5,28-1.7,1.2-5.4-4.8-7-5.5-7-3.2-12.2,4.8-14.3,4.4-5.9-5.4-12.5-7.8-19.6-2.9,1.1-6.6,3.1-14,3.9-20.6s1-4.5-.9-4.4c-1.7,9-6.6,17.6-6,27-3.4-.8-5.1-4-8.9-4.6s-4.8.7-7,1.6c5.7-30.7,26-58.4,26-90l54,24.5c19.5,11.3,33.5,27.6,42,48.5h-.1Z"/>
  <path class="cls-1" d="M397.5,182.85c.6,5.5,6.5,16.2,6.6,19s-4.3,12.7-5.4,15.2c-13.2,28.5-63.6,67.1-93.6,41.3-12-10.3-17.1-34.9-3.5-46,1.5,6.7,3.7,14.2,9,19l-3-20c8.1.6,6.8,10.2,12.5,15l-2.5-13h14.5c11.2,0,40.8-18.6,49.5-26.5,3.9-3.6,6.7-7.9,10.5-11.5l-6,33c5.7-7.2,9-20.5,9.5-29.5.1-2.3-1.2-4.4-1-6.8s1.4-6.1,3-6.6c.5,5.6-.6,12,0,17.5l-.1-.1h0ZM337.5,245.35c-4.4.7-6.3,1.1-10.7.2s.3,5.4,2.2,5.5l8.5-5.7Z"/>
  <path class="cls-1" d="M473.9,334.95c.6.8,2.7,1,2.6,2.8-2.2,19.6-.6,38.3,3,57.5-8.6-7.5-12.5-19.3-15.5-30-.2,11.8,4.8,23.6,7.5,35-1.3,1.1-23.6,1.7-27.4,2.1s-9,3.7-9.9,3.7c-7.8-.2-23-11.4-31.5-12.9l11.1-59.6c.6-.7,6.1-2.3,7.3-2.3,2.8,0,3.9,2.3,6.2,2.9,9,2.2,13.1-6.1,15.7-5.7,7.8,9.8,15,7.5,24.3,1.1,3.2.7,4.9,3.1,6.7,5.5l-.1-.1h0Z"/>
  <path class="cls-1" d="M383.5,67.35l-9.5-3.5-7.5,1.5c3.9-1.7,21.2,10.8,19,13-20.9-4-41.6-4.7-62,2l-2-5v6c-2.7-.3-5.9.4-8.6,0-4.9-.6-2.3-3-5-6l-1,5c-10.4-2.9-21.7-6.3-32.5-4-.3-18.2,7.9-43.8,29.5-45,6-.3,12.5,2.9,18,2.8s16.1-4.3,25-3.8c20.8,1.1,32.3,18.3,36.5,37h.1Z"/>
  <path class="cls-1" d="M535.3,478.15c-17.8,4.8-36.3,7-54.8,7.2-.3-28.1-15.2-54.8-35-74,6.4-.3,13.1.4,19.5,0,6.8-.5,17.8-3.8,24-3,6.8.8,23.1,15.5,28,21,10.4,11.9,22.8,32.7,18.2,48.8h.1,0Z"/>
  <path class="cls-1" d="M284.5,202.35c.5-.6,3.8-4.2,4-4l6,7.5c-10.7,10.6-17,26.2-21.5,40.5-7.7,24.8-11.4,52.1-12.5,78l-30-1c3.3-39.8,7.6-93.4,45.1-116.4,2-1.2,7-4.2,8.9-4.6-3.1,3.7-6.9,8.3-8,13l10-12.5c0-.8-1.4-.6-2-.5Z"/>
  <path class="cls-1" d="M376.5,133.35l15-9-5.9,18.4c-6.5,2.1-12.2,6.8-17.7,9.9l-8.4,11.7c.1-8.7-.8-19.7-11.2-21.3-1.9-.3-3.6.4-5.8,0-5.3-1.1-9.6-4.9-15-5.6,1-2.1,4.1-1.5,6-3.4,3.2-3.3,3.7-8.9-.6-11.5-.6,3.1,2.2,6.5-.9,9.1s-12.7-5.5-14.6,2.9l4,.5c-6.5,7.5-18.8-1.5-20-8.9,3.9-5,8-30,12.7-31.4,7.7-1.3,8,9.6,12.1,15.6,7.9,11.4,16.3,13.3,29.8,12.3s16-3.3,20.3-12.7,3.1-12.6,4.6-14.4,8-1.9,9.3.7,3.1,16.2,2.8,17.4c-.9,3.4-17.9,18.8-16.6,19.9l.1-.2h0Z"/>
  <path class="cls-1" d="M337.5,23.35c-.2-1.6,1.9-1.2,3-1.5,13.3-3.5,27.2-1.6,38.3,6.7s10.4,11,11.7,9.8c-2.4-6.2-7.8-10.6-13-14.5l3-1c-13-11.8-31.1-12.5-47-6.5,10.3-9.3,27.1-10.1,40.2-7.7,37.3,6.8,54.8,43,62.4,76.6.2,1,1.3,3.3-.5,3-9.8-22.9-22.5-52.6-44.7-65.8-1.2-.7-4-2.9-5.3-1.7,9.4,7.4,13.7,17.3,20,27l-.5,1.5-4-4c-.7-.2-.7,1-.5,1.5.9,2.3,4.6,6.4,6.2,9.8,4.3,9.3,7,20.1,11.6,29.4,10.6,21.3,25.1,36,46.2,46.8-.6,1.2-2.9.1-3.8-.2-4.1-1.3-20.6-11.3-23.7-14.3-6.1-6.1-10.8-16-16-23,.2,6.2,2.5,13.5,4.7,19.3s5.6,9.6,6.7,13.3c1.1,3.7.3,1.6-.5,1.5-21.2-20.8-18.3-54.7-37.5-77,1.8,9.3,4.9,18.5,6.7,27.8s2.8,21,5.6,31.4c2.8,10.7,7.4,20.7,11.7,30.8-25.9-29-13.6-81.2-41.5-108-3.5-3.4-15.4-11-20-11h-19.5Z"/>
  <path class="cls-1" d="M302.5,334.35l-8.4,10.1-2,.8c-12.8-1.7-26.1-1.4-39.1-1.9-43.6-1.7-87.4-3.8-130.9-5.1-5.9-.2-43.1.9-44.5-1,2.6-2.8,4.1-7.8,8.4-8,72.4,0,144.5,1.5,216.5,5.1h0Z"/>
  <path class="cls-1" d="M246.5,227.35l-9.7,21.7c-6.4,17.8-10.1,36.4-12.3,55.3-4.9-2.3-7.6.4-12,2-.6-10.1-13.3-6.9-14.1-7.4-1.6-1.1-3.5-11.4-10.9-10.1,9.9-15.6,17-34.4,31.5-46.5s17.9-10.9,27.5-15Z"/>
  <path class="cls-1" d="M358.4,486.15l-7.8,5.2c-15.4-48.7-32.9-97.1-52.5-144l8.1-7.9,2.6,2.3c17.7,47.8,33.8,96.1,49.7,144.5l-.1-.1h0Z"/>
  <path class="cls-1" d="M308,165.35c-.4,0-1.4-1.4-2.5-1-.6,4.1,3.6,5.3,6,7.5.1,1.1-4.9,5.5-6,6-9.5,3.9-18.1-20.4-12.3-22.3,7.3.4,14.6,2.9,21.9,3s17.9-1.3,24.9-2.2,10.8-5.7,11.6,3.6c1.3,14.9-20.9,28.5-27,10.5,4.1-.2,7.2-3.2,9-6.5-1.5-1.6-4.4,1.5-5.5,1.5-6.1,0-14.2.7-20,0l-.1-.1Z"/>
  <path class="cls-1" d="M480.4,314.45l-1.9,13.8c-4.3-1-6.8-6-11.5-6.1s-9.1,9.4-16.5,4.5-2.3-5.4-7.6-5.5c-5.8,0-7.5,4.5-12.2,6.8-6.5-3-7.5-6.6-15.3-2.8,2.6-5.3,1.2-12.5,6.7-15.8,10.1-6.3,8.6,4.3,13.9,4.9s7.3-7.6,14-7.1,7,10,14.5,6.6c2-.9,5.2-6.7,7.3-6.3l8.6,7h0Z"/>
  <path class="cls-1" d="M548.2,293.65c.5.4,5.6,11.7,5.8,12.7.5,1.8.4,1.8-1.1,3-2.9.7-5.9-5-10-5.1s-8,7.3-12.2,7.9-8.2-6.5-14.6-2.7-3.4,6.7-5.4,7.9c-3.3,2-8.1.2-11.6,1.2s-7,6.2-8.5,8.5l-6.2,11.3c.3-6.8.4-21.1,6.1-25.4s9-.8,11.9-2,4.4-11.8,12.8-13.4,11.3,5.8,16.8.8,2.2-5.6,5.2-6.8c2-.6,9.6.9,11,2.1h0Z"/>
  <path class="cls-1" d="M303.5,136.35c.8,1.1-9,6.6-10.3,7.2-2.2,1.1-3-1.3-6.1,2.9s-2.1,9.9-2.1,15.9l-5.5-13-3,1c-2-9.3-5.9-18.2-5-28,10.1,1.8,20.4,1,29-5-1.1,8-9.3,15.7,3,19h0Z"/>
  <path class="cls-1" d="M207.4,322.25h-11.7c-2.1-7.3-8.5-17.5-17.1-16.9l5.2-9.8,6.4.7,3.3,8.6c1.8,1.2,7,0,9.5.5,5.4,1,6.9,12.5,4.4,16.8v.1h0Z"/>
  <path class="cls-1" d="M435.5,471.35l-71,13c0-1.6-.1-3.3-.7-4.8s-4.1-5.6-1-5c5.4,1.1,10,.4,15.3,1.7,16.9-.5,36.3-7,52.9-7,1.8,0,3.9,0,4.5,2.1h0Z"/>
  <path class="cls-1" d="M298,24.35c-2,.2-7.2,1.9-9.2,2.8-3.1,1.4-6.3,5.5-7.8,6.2s-2-.3-1.5-1.5,9.6-11,11.5-12.5c3.3-2.6,8.3-5.3,12.2-6.8s24.5-6.4,26.8-3.2l-1,2c-4.7-1.1-14.2-2.8-15.5,3l11,1c.6,4-2.5,1-3.5,1h-15c-.5,0-4,2.1-3.5,3.5l10,4.5c-4.6.4-10-.5-14.5,0Z"/>
  <path class="cls-1" d="M361.5,270.35c-21.6,17.9-62.7,18.1-73-12,17.1,24.3,48.3,24.3,73,12Z"/>
  <path class="cls-1" d="M440.5,476.35l-86,20,6.7-5.8c26.7-3.1,52.7-11.4,79.3-14.2Z"/>
  <path class="cls-1" d="M454.5,188.35c-22.6-4.2-38.4-23.5-44-45l20,26.5c3.5,3.2,7.3,7,11.1,9.9,4.1,3.1,9,5.3,12.9,8.6Z"/>
  <path class="cls-1" d="M465.5,162.35c.2,1.8-2.3,1-3.4.9-13.9-1.7-27-16.7-34-28s-1.9-2.2-1.6-3.9c12.1,11.2,22.9,25.5,39,31Z"/>
  <path class="cls-1" d="M241.5,162.35c-1.4.3-1.3-1.9-1.5-3-2.7-14.8,6.7-24.4,15.5-34.5l4-8.5c.4,11-8.5,17.4-12.5,26s-4.1,13.5-5.5,20Z"/>
  <path class="cls-1" d="M188.5,322.35h-20l7.5-12c4.3,5.6,11.6,2.8,12.5,12Z"/>
  <path class="cls-1" d="M261.5,169.85c-.8,5.7-6.4,13.5-12,15.5,5.5-8.2,8.3-17.9,9.9-27.6s-1.2-9.2,2.1-11.4c-.7,7.3,1,16.4,0,23.5Z"/>
  <path class="cls-1" d="M223.4,311.55l-.3,10.9-9.6.9c.6-6.3,1.3-16.2,9.9-11.8h0Z"/>
  <path class="cls-1" d="M331.5,152.35l-14.5,2.1-14.5-1.6c4.8-1.1,11.3-2.5,12-8.5,4,6.1,10.2,6.8,17,8Z"/>
  <path class="cls-1" d="M279.5,81.35c.3,1.3-1.9,1.6-2.7,1.7-8.7,1.3-18.5-.5-17.3,12.2l-5-9.5c-.3-1.9.2-1.2,1.3-1.7,6-2.8,17-2.4,23.7-2.7Z"/>
  <path class="cls-1" d="M257.5,199.35l8.2-11.3,4.8-16.7c.6,8.2-.4,15.4-5.5,22s-6.5,7-7.5,6Z"/>
  <path class="cls-1" d="M380.5,84.35l-5.5,8c-1.8-4.9-3.5-6.7-7.5-10l13,2Z"/>
  <path class="cls-1" d="M342.5,82.35l-12.5,5-3.5,10c-4.7-12.8,6-14,16-15Z"/>
  <polygon class="cls-1" points="394.5 459.35 380.5 457.35 387.9 454.35 394.5 459.35"/>
  <path d="M184.5,413.35c3.6,1.8,16.9,8.4,17.8,11.7s-.3,4.4-3.3,4.4-23.2-12.2-24-14.1c-1.3-2.9-.9-5.5,1.5-7.5s18.6-11.5,20-12,2.4-1,4,0c8.6,5.3-18.1,14.5-16,17.5h0Z"/>
  <path d="M228.5,413.35c-2.8-4.2-21.9-10.5-17.9-16.9,1-.4,2.2-1,3.2-.9s21.8,12.2,22.6,13.2c1.5,1.9,1.5,4.4.5,6.5s-19.2,13.9-21.5,14.6-2.4.6-3.6-.5c-.8-.7-1.5-1.5-1.5-2.6,0-3.1,14.3-12.7,18-13.5l.2.1h0Z"/>
  <path d="M337.5,245.35l-8.5,5.7c-1.9-.1-5.6-6.3-2.2-5.5s6.3.5,10.7-.2Z"/>
  <g>
    <path d="M324.54,662.89h-145.52l-.57-30.41c-46.14,7.39-88.71.74-116.43-36.56-17.01-22.9-23.76-47.78-50.57-67.32-4.8-3.5-9.05-6.46-11.45-11.9,35.71-8.97,55.49,10.91,72.96,34.75,21.84,29.81,59.63,43.22,97.39,33.16,5.43-1.45,9.57-4.49,10.01-10.12,1.16-14.84,5.87-28.13,14.25-40.98-22.08-6.3-42.67-11.41-62.96-19.37-44.89-17.61-73.01-54.04-77.56-98.73-3.07-30.19-1.07-60.33,6.39-89.93,4.37-17.31,13.69-31.4,27.62-44.41-9.87-26.71-10.45-53.05-.42-79.52,4.48-11.84,41.47,10.08,53.62,22.98l20.45,21.72c43.51-21.2,135.23-21.4,181.08-.36l23.48-24.08c11.54-11.83,44.25-29.4,49.48-22.56,1.01,1.32,2.37,4.07,3.07,6.12,18.74,54.8-9.85,69.53,1.5,80.17s19.3,22.89,23.16,37.69c8.42,32.25,10.7,64.85,6.22,97.95-5.3,39.15-30.95,70.29-67.98,89.2-22.64,11.56-46.85,16.74-73.42,21.24,10.33,16.47,16.24,33.86,16.23,53l-.03,78.26Z"/>
    <path class="cls-1" d="M476.5,461.35l-29-3c-.1-2.6,2.8-3.5,3.6-5.9s.5-4.7.4-7.1c-1.9,1.1-1.8,3.9-3.4,6-10.3,14-34.5,6.8-44.4-4.5l1.8-3.5c-8.3,4.8-15.4,1.7-23.5,9s-3.8,8.3-9.5,6.6c-6.7-2-3.8-11-1.4-15.5,4.5-8.2,16.2-10.5,22.4-17.6-1.1-1.5-1.6-1.5-3.4-1.5s-12.3,3.7-14.3,4.8c-5.1,2.6-10.3,8.6-13.8,13.2-.7,0-5.2-11.7-5.3-12.7-1.7-10.6,22.2-16.4,26.8-23.2-11.6.4-22.4,6-31.5,13l-4.4-12.4c.5-1.9,31.4-17.5,34.4-17.5,20.9,5.8,39.5,19.6,60.2,25.6,6.4,1.9,5.1-.7,10.8,5.2,10.7,11.2,18.5,26.4,23.5,41h0Z"/>
  </g>
</svg>